<?xml version="1.0" standalone="no"?>
<!DOCTYPE svg PUBLIC "-//W3C//DTD SVG 1.1//EN" "http://www.w3.org/Graphics/SVG/1.1/DTD/svg11.dtd" >
<svg xmlns="http://www.w3.org/2000/svg">
<metadata>
Created by FontPrep 20130207 at Fri Feb 12 11:06:47 2016
 By Artem Aminov
Digitized data copyright The Monotype Corporation 1991-1995. All rights reserved. ITC Franklin Gothic is a trademark of The International Typeface Corporation which may be registered in certain jurisdictions.
</metadata>
<defs>
<font id="0aeb5d0b702297ab4c74f46715f78009" horiz-adv-x='1024' >
  <font-face 
    font-family="FranklinGothic-DemiCond"
    font-weight="600"
    font-stretch="normal"
    units-per-em="2048"
    panose-1="2 0 7 3 0 0 0 0 0 0"
    ascent="1638"
    descent="-410"
    x-height="1010"
    cap-height="1365"
    bbox="-58 -370 1733 1868"
    underline-thickness="102"
    underline-position="-103"
    unicode-range="U+0020-0491"
  />
<missing-glyph horiz-adv-x="1024" 
 />
    <glyph glyph-name=".notdef" horiz-adv-x="1024" 
 />
    <glyph glyph-name=".null" horiz-adv-x="0" 
 />
    <glyph glyph-name="nonmarkingreturn" horiz-adv-x="682" 
 />
    <glyph glyph-name="space" unicode=" " horiz-adv-x="382" 
 />
    <glyph glyph-name="exclam" unicode="!" horiz-adv-x="698" 
d="M209 302h279v-302h-279v302zM169 1365h360l-89 -958h-183z" />
    <glyph glyph-name="quotedbl" unicode="&#x22;" 
d="M584 1365h264l-38 -600h-188zM200 1365h264l-38 -600h-187z" />
    <glyph glyph-name="numbersign" unicode="#" 
d="M439 805l-33 -219h202l33 219h-202zM347 1365h177l-60 -395h202l60 395h177l-60 -395h184l-25 -165h-184l-33 -219h184l-25 -167h-184l-64 -419h-176l63 419h-203l-63 -419h-177l64 419h-184l25 167h184l33 219h-184l25 165h184z" />
    <glyph glyph-name="dollar" unicode="$" 
d="M447 1479h154v-142q258 -31 334 -292l-212 -87q-62 179 -192 179q-65 0 -105 -40q-39 -41 -39 -97q1 -56 37 -88q36 -30 166 -78t210 -93t127 -125t47 -183q0 -161 -96 -269t-277 -126v-184h-154v183q-302 32 -374 351l238 62q33 -201 219 -201q88 -1 128 43t41 106
q0 62 -41 94q-42 34 -176 80t-206 90t-115 120q-44 76 -44 195t79 228q81 108 251 132v142z" />
    <glyph glyph-name="percent" unicode="%" horiz-adv-x="1361" 
d="M1111 349q0 121 -19 159q-21 36 -59 36q-37 0 -55 -41t-18 -164t19 -159t58 -36t57 42q17 42 17 163zM1305 346q0 -174 -72 -264t-198 -89q-126 0 -198 90t-72 262q1 172 73 261t196 89t198 -88q73 -87 73 -261zM928 1365h154l-644 -1365h-155zM401 1026q0 121 -19 159
q-20 36 -58 36t-56 -40t-18 -165t19 -160t58 -35t57 41q17 43 17 164zM596 1021q0 -171 -72 -261t-198 -90t-198 88t-72 262t71 263t199 89t199 -90t71 -261z" />
    <glyph glyph-name="ampersand" unicode="&#x26;" horiz-adv-x="1326" 
d="M379 400q0 -86 51 -141q52 -55 152 -55t183 80l-247 334q-139 -84 -139 -218zM654 1191q-108 1 -109 -119q0 -60 90 -184q123 69 123 188q0 47 -26 82q-26 33 -78 33zM1165 -14q-142 0 -265 129q-166 -136 -382 -136t-320 121q-104 122 -104 282q0 264 310 394
q-127 173 -127 301q0 129 100 219t261 90t255 -94t94 -232q0 -206 -236 -328l189 -251q66 109 106 300l223 -40q-56 -242 -186 -437q71 -74 139 -74l47 2v-232q-58 -14 -104 -14z" />
    <glyph glyph-name="quotesingle" unicode="'" horiz-adv-x="698" 
d="M217 1365h264l-38 -600h-187z" />
    <glyph glyph-name="parenleft" unicode="(" horiz-adv-x="698" 
d="M363 512q0 -466 208 -854h-220q-248 370 -248 854t248 853h220q-208 -387 -208 -853z" />
    <glyph glyph-name="parenright" unicode=")" horiz-adv-x="698" 
d="M334 511q0 216 -56 448t-152 406h221q247 -369 247 -853t-247 -854h-221q96 175 152 406t56 447z" />
    <glyph glyph-name="asterisk" unicode="*" 
d="M437 1365h171l-24 -251l207 140l83 -153l-223 -99l223 -98l-83 -153l-207 140l24 -251h-171l25 251l-207 -140l-83 153l223 98l-223 99l83 153l207 -140z" />
    <glyph glyph-name="plus" unicode="+" 
d="M636 791h306v-217h-306v-310h-225v310h-306v217h306v310h225v-310z" />
    <glyph glyph-name="comma" unicode="," horiz-adv-x="523" 
d="M122 302h279v-275l-169 -350h-110l131 323h-131v302z" />
    <glyph glyph-name="hyphen" unicode="-" horiz-adv-x="558" 
d="M76 628h407v-221h-407v221z" />
    <glyph glyph-name="period" unicode="." horiz-adv-x="523" 
d="M122 302h279v-302h-279v302z" />
    <glyph glyph-name="slash" unicode="/" horiz-adv-x="1081" 
d="M792 1365h190l-832 -1707h-190z" />
    <glyph glyph-name="zero" unicode="0" 
d="M662 668q0 326 -28 414q-28 86 -107 86t-111 -74t-33 -408q0 -334 31 -412q33 -76 108 -76t108 72q32 72 32 398zM979 676q0 -348 -106 -522t-353 -175t-350 181t-103 530t106 522t354 174t349 -182q103 -180 103 -528z" />
    <glyph glyph-name="one" unicode="1" 
d="M734 1377v-1154h226v-223h-756v223h230v806q-102 -106 -230 -171v267q182 96 301 252h229z" />
    <glyph glyph-name="two" unicode="2" 
d="M509 1386q209 0 317 -115t108 -285t-120 -334t-451 -385h590l-22 -267h-874v267q375 321 468 454t93 251q0 170 -128 170q-78 0 -113 -68t-47 -190l-273 55q68 447 452 447z" />
    <glyph glyph-name="three" unicode="3" 
d="M514 1386q190 0 296 -98t107 -268q0 -215 -203 -304q230 -74 230 -325q0 -202 -126 -307t-310 -105q-184 -1 -314 91q-129 92 -161 313l265 44q20 -204 178 -204q73 0 116 49t43 140q0 186 -210 186l-83 -1v221h83q67 0 105 13t64 52q25 42 25 105q0 166 -137 166
q-120 0 -157 -168l-261 49q104 351 450 351z" />
    <glyph glyph-name="four" unicode="4" 
d="M566 538v562l-303 -562h303zM842 1386v-832h153v-233h-153v-321h-300v321h-491v233l465 832h326z" />
    <glyph glyph-name="five" unicode="5" 
d="M611 907q147 0 257 -107t111 -342q0 -235 -127 -358q-130 -121 -326 -121t-318 105t-139 281l273 45q22 -187 177 -187q169 0 169 221q0 98 -45 158t-129 61q-110 0 -150 -106l-235 45l48 763h730l-29 -267h-482l-17 -308q85 117 232 117z" />
    <glyph glyph-name="six" unicode="6" 
d="M698 433q0 209 -148 209q-155 0 -155 -229q0 -108 41 -163q42 -53 110 -53q152 0 152 236zM567 1168q-85 0 -134 -88q-48 -90 -51 -374q84 155 242 155t262 -114q103 -114 103 -325t-121 -328q-123 -115 -310 -115q-453 0 -453 686q1 369 125 545t346 176q162 0 266 -90
t139 -273l-243 -73q-33 218 -171 218z" />
    <glyph glyph-name="seven" unicode="7" 
d="M952 1365v-230q-327 -423 -331 -1135h-326q7 624 400 1098h-577l23 267h811z" />
    <glyph glyph-name="eight" unicode="8" 
d="M325 375q0 -85 52 -137t140 -52t138 47t50 105t-41 111q-41 52 -208 126q-131 -80 -131 -200zM691 1012q1 86 -39 133q-40 46 -112 46t-116 -42q-44 -41 -43 -113q0 -72 68 -120t145 -81q97 91 97 177zM986 391q0 -172 -121 -292t-351 -120t-342 105t-112 271
q0 97 46 175q49 77 177 143q-184 115 -184 321q0 160 108 276t321 116t318 -96q103 -98 103 -253q0 -191 -174 -292q211 -124 211 -354z" />
    <glyph glyph-name="nine" unicode="9" 
d="M652 958q0 100 -42 155t-109 55t-110 -52t-43 -157q0 -210 152 -210t152 209zM496 197q168 0 168 389l-1 42q-79 -123 -247 -123t-264 135q-94 138 -94 311t108 304t311 131t301 -101t132 -258t33 -321q0 -727 -459 -727q-318 0 -395 333l261 51q25 -166 146 -166z" />
    <glyph glyph-name="colon" unicode=":" horiz-adv-x="523" 
d="M122 302h279v-302h-279v302zM122 1010h279v-303l-279 1v302z" />
    <glyph glyph-name="less" unicode="&#x3c;" 
d="M967 1276v-304l-564 -290l563 -291l1 -302l-887 466v256z" />
    <glyph glyph-name="equal" unicode="=" 
d="M942 407h-837v216h837v-216zM942 742h-837v216h837v-216z" />
    <glyph glyph-name="greater" unicode="&#x3e;" 
d="M80 89v304l564 290l-562 291l-2 302l887 -466v-256z" />
    <glyph glyph-name="question" unicode="?" horiz-adv-x="977" 
d="M315 291h268v-291h-268v291zM484 1386q204 0 300 -115t96 -251t-46 -218q-46 -80 -140 -164t-110 -116q-16 -34 -15 -131h-240v45q0 120 14 178t96 137q82 80 111 133q28 52 28 122t-35 103t-82 33q-145 0 -146 -246l-256 36q5 204 113 329t312 125z" />
    <glyph glyph-name="at" unicode="@" horiz-adv-x="1291" 
d="M734 732q0 136 -70 136q-49 0 -82 -68t-33 -185q0 -155 77 -155q108 0 108 272zM883 502q0 -71 45 -71q62 0 110 101q50 97 50 244q0 228 -106 356q-107 128 -306 128t-330 -156t-131 -416q1 -262 127 -420t360 -157q192 0 355 110l55 -133q-199 -128 -419 -128
q-295 0 -475 196t-180 516q0 322 176 530q177 208 458 208t432 -172t151 -422q-1 -248 -109 -394t-234 -146t-162 116q-61 -118 -176 -118q-92 0 -152 92q-59 92 -59 263q1 171 85 298t194 127t159 -105l13 91h138l-58 -418q-11 -85 -11 -120z" />
    <glyph glyph-name="A" unicode="A" 
d="M630 516l-137 557l-133 -557h270zM370 1365h302l390 -1365h-307l-68 282h-384l-67 -282h-276z" />
    <glyph glyph-name="B" unicode="B" horiz-adv-x="1151" 
d="M417 235h147q207 0 207 178q0 100 -51 140t-156 40h-147v-358zM417 814h97q146 0 183 52t37 116q0 66 -37 114t-161 48h-119v-330zM129 1365h466q163 0 247 -26q84 -27 141 -115q56 -88 56 -218q0 -230 -195 -294q232 -82 232 -335q0 -131 -63 -223t-155 -123t-263 -31
h-466v1365z" />
    <glyph glyph-name="C" unicode="C" horiz-adv-x="1117" 
d="M596 -21q-252 -1 -384 187t-132 516t130 516t390 188q428 0 465 -528l-274 -20q-10 304 -190 304q-95 0 -150 -97t-55 -365t50 -363q50 -94 154 -94q165 0 193 274l277 -17q-15 -221 -141 -362q-127 -139 -333 -139z" />
    <glyph glyph-name="D" unicode="D" horiz-adv-x="1151" 
d="M429 1131v-896h51q106 0 162 40q124 88 124 427q0 176 -38 268q-34 92 -92 126t-156 35h-51zM129 1365h323q210 0 341 -56t211 -208t79 -412q0 -183 -48 -326q-92 -273 -302 -335q-96 -28 -245 -28h-359v1365z" />
    <glyph glyph-name="E" unicode="E" horiz-adv-x="977" 
d="M129 1365h830v-234h-530v-317h412v-235h-412v-335h530v-244h-830v1365z" />
    <glyph glyph-name="F" unicode="F" horiz-adv-x="907" 
d="M129 1365h810v-234h-510v-357h393v-234h-393v-540h-300v1365z" />
    <glyph glyph-name="G" unicode="G" horiz-adv-x="1187" 
d="M608 728h474v-728h-127l-39 156q-110 -177 -336 -177t-364 183q-136 186 -136 508t134 520q136 196 398 196q419 0 470 -468l-270 -44q-28 268 -194 268q-100 0 -161 -99t-61 -359t58 -360t174 -101q182 0 184 270h-204v235z" />
    <glyph glyph-name="H" unicode="H" horiz-adv-x="1186" 
d="M129 1365h300v-551h328v551h300v-1365h-300v558h-328v-558h-300v1365z" />
    <glyph glyph-name="I" unicode="I" horiz-adv-x="558" 
d="M129 1365h300v-1365h-300v1365z" />
    <glyph glyph-name="J" unicode="J" horiz-adv-x="663" 
d="M241 1365h300v-906q0 -169 -26 -267q-56 -213 -342 -213q-67 0 -183 21v251q75 -14 137 -14t89 43q25 44 25 179v906z" />
    <glyph glyph-name="K" unicode="K" horiz-adv-x="1081" 
d="M129 1365h300v-569l332 569h303l-342 -502l371 -863h-310l-240 629l-114 -165v-464h-300v1365z" />
    <glyph glyph-name="L" unicode="L" horiz-adv-x="872" 
d="M129 1365h300v-1109h440v-256h-740v1365z" />
    <glyph glyph-name="M" unicode="M" horiz-adv-x="1535" 
d="M129 1365h440l193 -843l217 843h427v-1365h-281v1143l-279 -1143h-218l-255 1143v-1143h-244v1365z" />
    <glyph glyph-name="N" unicode="N" horiz-adv-x="1151" 
d="M118 1365h333l351 -848v848h232v-1365h-268l-416 988v-988h-232v1365z" />
    <glyph glyph-name="O" unicode="O" horiz-adv-x="1151" 
d="M755 684q0 276 -43 368q-43 90 -136 90q-92 0 -136 -91t-44 -365t43 -368t135 -95q92 0 138 91q43 94 43 370zM1071 683q0 -704 -495 -704q-246 0 -371 180t-125 524q0 703 495 703q241 0 369 -176t127 -527z" />
    <glyph glyph-name="P" unicode="P" 
d="M429 1144v-404h93q124 0 159 57t35 141t-28 133t-63 61t-103 12h-93zM129 1365h393q180 0 278 -30q98 -29 165 -135t67 -259q0 -297 -204 -393q-97 -43 -293 -43h-106v-505h-300v1365z" />
    <glyph glyph-name="Q" unicode="Q" horiz-adv-x="1151" 
d="M755 684q0 276 -43 368q-43 90 -136 90q-92 0 -136 -91t-44 -365t43 -368t135 -95q92 0 138 91q43 94 43 370zM893 -282q-255 0 -272 263q-50 -2 -57 -2q-220 0 -352 170t-132 534q0 703 495 703q245 0 371 -178q125 -179 125 -513q0 -239 -56 -403t-194 -253
q2 -59 25 -81q24 -21 72 -21t103 15v-216q-64 -18 -128 -18z" />
    <glyph glyph-name="R" unicode="R" horiz-adv-x="1116" 
d="M429 1144v-383h132q176 0 176 197q0 66 -26 111t-61 59q-32 16 -101 16h-120zM129 1365h429q122 1 190 -11t136 -63t107 -138q38 -87 38 -196q0 -257 -192 -360l251 -597h-327l-182 540h-150v-540h-300v1365z" />
    <glyph glyph-name="S" unicode="S" 
d="M522 1142q-67 0 -105 -37t-38 -91t45 -90q52 -36 188 -88t212 -100t120 -130q47 -79 47 -191q1 -191 -131 -313t-353 -123q-371 0 -474 375l262 75q48 -206 219 -206q79 0 127 40q48 41 48 99t-34 98q-35 40 -173 89t-217 96t-128 131t-49 191q0 183 118 301
q119 118 314 118q356 0 444 -318l-248 -95q-52 169 -194 169z" />
    <glyph glyph-name="T" unicode="T" horiz-adv-x="802" 
d="M-24 1365h851v-256h-279v-1109h-300v1109h-272v256z" />
    <glyph glyph-name="U" unicode="U" horiz-adv-x="1186" 
d="M129 1365h300v-780q0 -165 15 -229t62 -100q48 -33 120 -33q72 -1 116 37t54 98t10 227v780h251v-768q-1 -230 -27 -343t-135 -194t-292 -81t-286 59q-101 60 -145 166t-43 381v780z" />
    <glyph glyph-name="V" unicode="V" horiz-adv-x="942" 
d="M-28 1365h315l210 -1040l217 1040h257l-335 -1372l-336 7z" />
    <glyph glyph-name="W" unicode="W" horiz-adv-x="1465" 
d="M-11 1365h307l143 -945l179 945h275l168 -947l167 947h253l-293 -1372h-269l-182 949l-186 -949h-266z" />
    <glyph glyph-name="X" unicode="X" horiz-adv-x="977" 
d="M10 1365h334l163 -355l172 355h287l-322 -617l364 -748h-329l-199 446l-224 -446h-287l375 700z" />
    <glyph glyph-name="Y" unicode="Y" horiz-adv-x="907" 
d="M585 0h-300v577l-343 788h330l193 -498l206 498h293l-379 -788v-577z" />
    <glyph glyph-name="Z" unicode="Z" horiz-adv-x="942" 
d="M44 1365h877v-213l-571 -908h589v-244h-937v209l575 912h-533v244z" />
    <glyph glyph-name="bracketleft" unicode="[" horiz-adv-x="698" 
d="M150 1365h421v-128h-172v-1451h172v-128h-421v1707z" />
    <glyph glyph-name="backslash" unicode="\" horiz-adv-x="1082" 
d="M289 1365l832 -1707h-189l-833 1707h190z" />
    <glyph glyph-name="bracketright" unicode="]" horiz-adv-x="698" 
d="M548 -342h-421v128h172v1451h-172v128h421v-1707z" />
    <glyph glyph-name="asciicircum" unicode="^" horiz-adv-x="1024" 
d="M301 718h-270l311 655h339l311 -655h-270l-210 449z" />
    <glyph glyph-name="underscore" unicode="_" horiz-adv-x="1024" 
d="M0 -116h1024v-182h-1024v182z" />
    <glyph glyph-name="grave" unicode="`" horiz-adv-x="942" 
d="M651 1203l-84 -84l-369 231l112 167z" />
    <glyph glyph-name="a" unicode="a" horiz-adv-x="977" 
d="M365 292q0 -128 94 -128q51 0 93 58q41 58 41 211v50q-125 -14 -175 -55q-53 -38 -53 -136zM502 1031q156 -1 241 -55t108 -128t23 -221v-403q0 -187 17 -224h-261q-14 42 -14 155q-93 -176 -277 -176q-120 0 -193 70t-73 206q1 170 113 262t407 110v38q-1 101 -21 140
t-79 39q-108 0 -119 -155l-267 26q19 151 129 233t266 83z" />
    <glyph glyph-name="b" unicode="b" horiz-adv-x="977" 
d="M381 419q0 -137 26 -191q25 -54 95 -54t97 76t27 250q0 176 -26 256t-96 81q-123 0 -123 -185v-233zM104 1365h277v-450q82 109 216 109t227 -126t93 -382q1 -256 -91 -397q-92 -140 -265 -140t-237 153q-30 -55 -53 -132h-167v1365z" />
    <glyph glyph-name="c" unicode="c" horiz-adv-x="907" 
d="M485 816q-142 0 -142 -298q0 -175 34 -243t103 -68q106 0 116 187l262 -17q-35 -398 -396 -398q-196 0 -299 131q-103 130 -103 390t108 395q110 135 305 135q353 0 385 -392l-262 -10q-6 94 -30 141t-81 47z" />
    <glyph glyph-name="d" unicode="d" horiz-adv-x="977" 
d="M598 587q0 151 -32 199q-30 51 -96 51t-92 -70q-25 -73 -25 -264t28 -257q27 -66 87 -65t95 45t35 182v179zM598 1365h277v-1365h-261v167q-64 -181 -229 -181t-245 142t-79 388q0 246 91 378q94 130 240 130t206 -108v449z" />
    <glyph glyph-name="e" unicode="e" horiz-adv-x="942" 
d="M616 649q0 195 -131 195t-132 -223h262q1 12 1 28zM881 458h-530v-56q0 -136 37 -182t97 -46q128 0 145 173l251 -16q-67 -352 -401 -352q-208 -1 -314 139t-106 387t114 386t294 139q181 0 298 -122q115 -124 115 -450z" />
    <glyph glyph-name="f" unicode="f" horiz-adv-x="593" 
d="M422 1010h178v-222h-178v-788h-270v788h-115v222h115q2 153 24 226t95 128t175 55t165 -10v-220q-31 4 -63 4q-82 0 -104 -35t-22 -148z" />
    <glyph glyph-name="g" unicode="g" horiz-adv-x="942" 
d="M275 -78q0 -102 232 -102q199 0 199 106q0 40 -22 64t-54 31q-34 7 -120 11t-146 12q-89 -41 -89 -122zM579 716q0 163 -89 163q-55 0 -77 -39t-22 -131q0 -153 97 -153q49 0 70 36t21 124zM902 1000q-88 0 -107 -91q75 -80 75 -210t-102 -212t-264 -82q-60 0 -131 17
q-66 -36 -66 -78q-1 -42 37 -55q38 -12 196 -21t233 -30t126 -86t51 -171q0 -338 -493 -338q-414 0 -414 241q0 132 165 188q-132 62 -132 184t174 213q-150 73 -150 252q0 151 102 230t278 79q114 0 216 -44q10 108 54 154t135 46q45 0 78 -10v-184q-34 8 -61 8z" />
    <glyph glyph-name="h" unicode="h" horiz-adv-x="977" 
d="M104 1365h282v-462q77 128 248 128q104 1 162 -47t76 -122q16 -74 16 -214v-648h-282v648q0 99 -18 132q-20 32 -77 32t-91 -31t-34 -141v-640h-282v1365z" />
    <glyph glyph-name="i" unicode="i" horiz-adv-x="488" 
d="M103 1010h282v-1010h-282v1010zM387 1093h-286v279h286v-279z" />
    <glyph glyph-name="j" unicode="j" horiz-adv-x="488" 
d="M113 1010h282v-977q-1 -154 -17 -233q-16 -78 -80 -124t-144 -46q-79 0 -171 14v231q21 -3 37 -3q62 0 78 31q15 31 15 138v969zM397 1093h-286v279h286v-279z" />
    <glyph glyph-name="k" unicode="k" horiz-adv-x="942" 
d="M104 1365h282v-745l284 390h256l-255 -339l280 -671h-304l-158 469l-103 -142v-327h-282v1365z" />
    <glyph glyph-name="l" unicode="l" horiz-adv-x="488" 
d="M103 1365h282v-1365h-282v1365z" />
    <glyph glyph-name="m" unicode="m" horiz-adv-x="1430" 
d="M104 1010h267v-138q73 158 249 158t214 -158q68 158 245 158q190 0 239 -134q23 -64 23 -236v-660h-281v631q0 113 -16 147t-76 34t-81 -45q-20 -45 -20 -179v-588h-282v640q0 108 -15 140q-17 32 -77 32t-85 -46q-22 -50 -22 -178v-588h-282v1010z" />
    <glyph glyph-name="n" unicode="n" horiz-adv-x="977" 
d="M104 1010h267v-138q71 158 253 158q97 0 164 -44q64 -46 82 -114t18 -210v-662h-282v662q0 102 -26 126t-85 24q-60 0 -85 -46q-24 -48 -24 -174v-592h-282v1010z" />
    <glyph glyph-name="o" unicode="o" horiz-adv-x="942" 
d="M470 176q70 0 96 70t25 262q-1 190 -27 258t-90 68t-94 -64q-28 -66 -28 -258t24 -264t94 -72zM882 504q0 -526 -410 -525q-410 -1 -411 525q1 526 411 526t410 -526z" />
    <glyph glyph-name="p" unicode="p" horiz-adv-x="977" 
d="M381 413q0 -143 23 -189q24 -43 92 -43t99 58q31 59 31 263t-27 270t-85 66t-96 -41t-37 -193v-191zM104 1010h260v-151q82 164 226 164t236 -124q92 -123 91 -383q0 -260 -90 -395t-253 -135q-116 0 -193 89v-417h-277v1352z" />
    <glyph glyph-name="q" unicode="q" horiz-adv-x="977" 
d="M588 608q0 140 -29 185t-94 45t-89 -54t-25 -266q-1 -210 25 -274t88 -63q62 0 93 51t31 227v149zM865 752v-1094h-277v447q-80 -119 -216 -119t-223 132q-88 132 -88 394t93 388q96 124 248 124t240 -145q46 50 77 131h155q-9 -75 -9 -258z" />
    <glyph glyph-name="r" unicode="r" horiz-adv-x="628" 
d="M104 1010h248v-244q68 257 239 257q18 0 48 -5v-275q-28 4 -47 4q-206 0 -206 -312v-435h-282v1010z" />
    <glyph glyph-name="s" unicode="s" horiz-adv-x="837" 
d="M421 844q-88 0 -88 -88q0 -50 34 -76t143 -65q108 -38 162 -69t91 -93t37 -144q0 -140 -101 -235t-282 -95q-341 0 -378 301l224 36q28 -151 159 -151q112 0 112 94q0 51 -34 77t-127 55q-175 55 -239 135t-65 183q0 146 102 234t257 88q268 0 342 -264l-201 -60
q-41 137 -148 137z" />
    <glyph glyph-name="t" unicode="t" horiz-adv-x="628" 
d="M420 1010h186v-222h-186v-371q0 -93 5 -129t29 -56q28 -20 65 -20t101 2v-214q-94 -21 -198 -21q-104 -1 -170 49q-68 50 -87 122t-19 236v402h-112v222h112v310l274 9v-319z" />
    <glyph glyph-name="u" unicode="u" horiz-adv-x="977" 
d="M90 1010h282v-648q0 -98 18 -131t75 -33t87 27q28 29 34 75t6 195v515h282v-1010h-265v138q-59 -102 -119 -130t-154 -29q-96 0 -154 45t-75 115t-17 214v657z" />
    <glyph glyph-name="v" unicode="v" horiz-adv-x="733" 
d="M-22 1010h271l139 -597l141 597h234l-277 -1010h-223z" />
    <glyph glyph-name="w" unicode="w" horiz-adv-x="1186" 
d="M-17 1010h274l119 -614l113 614h274l92 -614l136 614h221l-253 -1010h-236l-130 687l-127 -687h-229z" />
    <glyph glyph-name="x" unicode="x" horiz-adv-x="768" 
d="M-11 1010h306l107 -234l130 234h245l-261 -446l301 -564h-305l-148 302l-169 -302h-245l299 517z" />
    <glyph glyph-name="y" unicode="y" horiz-adv-x="733" 
d="M152 -358q-78 0 -138 16v222q42 -6 101 -6t91 27q30 27 57 118l-291 991h282l136 -617l131 617h243l-304 -1026q-44 -148 -76 -206t-92 -98q-62 -38 -140 -38z" />
    <glyph glyph-name="z" unicode="z" horiz-adv-x="733" 
d="M76 1010h630v-181l-375 -629h385v-200h-675v200l366 610h-331v200z" />
    <glyph glyph-name="braceleft" unicode="{" horiz-adv-x="698" 
d="M188 -30v352q-2 70 -20 94t-80 26v167q70 1 85 29t15 183v232q0 197 58 255t206 58q30 0 94 -3v-134q-74 -2 -93 -29t-19 -147v-223q0 -182 -18 -226t-102 -79q82 -33 101 -78t19 -227v-250q0 -119 19 -145t93 -31v-134l-93 -2q-97 0 -141 13t-84 71t-40 228z" />
    <glyph glyph-name="bar" unicode="|" horiz-adv-x="1024" 
d="M358 1365h307v-1706h-307v1706z" />
    <glyph glyph-name="braceright" unicode="}" horiz-adv-x="698" 
d="M263 -30v250q0 182 18 226t102 79q-83 33 -101 77t-19 228v223q1 119 -19 147t-93 29v134q70 3 92 3q119 0 165 -24t73 -82q28 -58 28 -207v-232l1 -92q0 -71 19 -95t80 -25v-167q-90 -3 -97 -68q-3 -29 -3 -145v-259q0 -136 -25 -200t-77 -88q-53 -24 -161 -24
q-7 0 -95 2v134q73 4 93 30q19 26 19 146z" />
    <glyph glyph-name="asciitilde" unicode="~" horiz-adv-x="1365" 
d="M495 1534q70 0 210 -61t178 -61q84 0 148 127l149 -124q-105 -274 -321 -274q-63 1 -197 59t-180 58q-79 0 -143 -127l-149 124q112 279 305 279z" />
    <glyph glyph-name="uni0401" unicode="&#x401;" horiz-adv-x="977" 
d="M129 1365h830v-234h-530v-317h412v-235h-412v-335h530v-244h-830v1365zM260 1598q0 46 34 79q34 32 80 32t80 -32q34 -31 34 -77t-35 -76t-77 -30t-80 29q-36 29 -36 75zM826 1598q0 -46 -36 -75t-79 -29t-78 30t-35 76t34 77q34 32 80 32t81 -31q33 -34 33 -80z" />
    <glyph glyph-name="uni0402" unicode="&#x402;" horiz-adv-x="1038" 
d="M612 -108q42 0 53 24t11 84v660q0 98 -17 132t-79 35q-62 0 -90 -41q-25 -42 -25 -134v-652h-300v1131h-182v234h851v-234h-369v-211q75 130 244 130q99 0 159 -48q58 -49 74 -123t16 -219l-1 -660q0 -345 -297 -345q-61 0 -163 20v235q73 -18 115 -18z" />
    <glyph glyph-name="uni0403" unicode="&#x403;" horiz-adv-x="959" 
d="M299 1554l341 314l112 -167l-369 -231zM959 1365v-248h-530v-1117h-300v1365h830z" />
    <glyph glyph-name="uni0404" unicode="&#x404;" horiz-adv-x="1144" 
d="M774 820v-229h-406q26 -369 235 -369q199 0 249 245l266 -59q-58 -432 -515 -432q-275 0 -405 194t-130 518q0 323 135 512t386 189q251 -1 377 -113t147 -263l-294 -65q-37 195 -212 195q-205 0 -235 -323h402z" />
    <glyph glyph-name="uni0405" unicode="&#x405;" 
d="M522 1142q-67 0 -105 -37t-38 -91t45 -90q52 -36 188 -88t212 -100t120 -130q47 -79 47 -191q1 -191 -131 -313t-353 -123q-371 0 -474 375l262 75q48 -206 219 -206q79 0 127 40q48 41 48 99t-34 98q-35 40 -173 89t-217 96t-128 131t-49 191q0 183 118 301
q119 118 314 118q356 0 444 -318l-248 -95q-52 169 -194 169z" />
    <glyph glyph-name="uni0406" unicode="&#x406;" horiz-adv-x="558" 
d="M129 1365h300v-1365h-300v1365z" />
    <glyph glyph-name="uni0407" unicode="&#x407;" horiz-adv-x="558" 
d="M129 1365h300v-1365h-300v1365zM-4 1598q0 46 34 79q34 32 80 32t80 -32q34 -31 34 -77t-35 -76t-77 -30t-80 29q-36 29 -36 75zM562 1598q0 -46 -36 -75t-79 -29t-78 30t-35 76t34 77q34 32 80 32t81 -31q33 -34 33 -80z" />
    <glyph glyph-name="uni0408" unicode="&#x408;" horiz-adv-x="663" 
d="M241 1365h300v-906q0 -169 -26 -267q-56 -213 -342 -213q-67 0 -183 21v251q75 -14 137 -14t89 43q25 44 25 179v906z" />
    <glyph glyph-name="uni0409" unicode="&#x409;" horiz-adv-x="1582" 
d="M1040 221q65 -1 103 13t64 62t26 132q-1 82 -35 140t-158 58h-149l116 -405h33zM1053 861q175 1 281 -41t161 -140t55 -248t-54 -247t-145 -141q-90 -44 -281 -44h-298l-271 1073l-256 -1073h-277l375 1365h337l144 -504h229z" />
    <glyph glyph-name="uni040A" unicode="&#x40a;" horiz-adv-x="1694" 
d="M1059 235h93q68 -1 104 13t62 60t27 126q0 81 -35 137q-36 55 -158 55h-93v-391zM1059 1365v-504h106q179 -1 283 -43t159 -139t55 -247t-58 -250t-148 -141t-304 -41h-393v569h-330v-569h-300v1365h300v-561h330v561h300z" />
    <glyph glyph-name="uni040B" unicode="&#x40b;" horiz-adv-x="1066" 
d="M676 0v660q0 98 -17 132t-79 35q-62 0 -90 -41q-25 -42 -25 -134v-652h-300v1131h-182v234h851v-234h-369v-211q75 130 244 130q99 0 159 -48q58 -49 74 -123t16 -219l-1 -660h-281z" />
    <glyph glyph-name="uni040C" unicode="&#x40c;" horiz-adv-x="1081" 
d="M129 1365h300v-569l332 569h303l-342 -502l371 -863h-310l-240 629l-114 -165v-464h-300v1365zM413 1554l341 314l112 -167l-369 -231z" />
    <glyph glyph-name="uni040E" unicode="&#x40e;" horiz-adv-x="934" 
d="M242 0h-127v253h127q28 0 60 20t69 135l-412 957h306l235 -596l204 596h278l-365 -1026q-70 -199 -151 -269t-224 -70zM509 1628q127 0 171 105h161q-71 -251 -329 -251t-333 251h161q42 -105 169 -105z" />
    <glyph glyph-name="uni040F" unicode="&#x40f;" horiz-adv-x="1186" 
d="M129 0v1365h300v-1109h328v1109h300v-1365h-357l-21 -290l-179 3l-17 287h-354z" />
    <glyph glyph-name="uni0410" unicode="&#x410;" 
d="M630 516l-137 557l-133 -557h270zM370 1365h302l390 -1365h-307l-68 282h-384l-67 -282h-276z" />
    <glyph glyph-name="uni0411" unicode="&#x411;" horiz-adv-x="1093" 
d="M429 626v-391h93q102 0 148 43q46 42 45 140q0 98 -36 153t-157 55h-93zM129 1365h776v-234h-476v-270h105q281 0 390 -112q108 -113 108 -325q0 -164 -72 -267t-170 -130t-268 -27h-393v1365z" />
    <glyph glyph-name="uni0412" unicode="&#x412;" horiz-adv-x="1151" 
d="M417 235h147q207 0 207 178q0 100 -51 140t-156 40h-147v-358zM417 814h97q146 0 183 52t37 116q0 66 -37 114t-161 48h-119v-330zM129 1365h466q163 0 247 -26q84 -27 141 -115q56 -88 56 -218q0 -230 -195 -294q232 -82 232 -335q0 -131 -63 -223t-155 -123t-263 -31
h-466v1365z" />
    <glyph glyph-name="uni0413" unicode="&#x413;" horiz-adv-x="959" 
d="M959 1365v-234h-530v-1131h-300v1365h830z" />
    <glyph glyph-name="uni0414" unicode="&#x414;" horiz-adv-x="1061" 
d="M329 249h374l-164 828h-38zM1092 249v-526h-222l-27 277h-625l-26 -277h-222v526h86l297 1116h385l269 -1116h85z" />
    <glyph glyph-name="uni0415" unicode="&#x415;" horiz-adv-x="977" 
d="M129 1365h830v-234h-530v-317h412v-235h-412v-335h530v-244h-830v1365z" />
    <glyph glyph-name="uni0416" unicode="&#x416;" horiz-adv-x="1469" 
d="M896 0h-300v586l-10 9l-327 -595h-289l404 710l-375 655h314l262 -499l21 -5v504h300v-504l11 5l272 499h291l-352 -588l431 -777h-317l-323 595l-13 -9v-586z" />
    <glyph glyph-name="uni0417" unicode="&#x417;" horiz-adv-x="1013" 
d="M527 1386q179 0 288 -96t109 -272q0 -213 -203 -302q230 -69 230 -327q-1 -193 -121 -302t-358 -109t-324 123q-85 124 -125 324l265 43q30 -164 76 -206q48 -39 122 -39t116 52q40 54 40 133q0 190 -210 190h-45v220h45q66 0 104 12t64 53q26 40 26 105q0 166 -140 166
q-50 0 -94 -28q-48 -27 -70 -175l-261 49q55 238 171 312t295 74z" />
    <glyph glyph-name="uni0418" unicode="&#x418;" horiz-adv-x="1208" 
d="M429 0h-300v1365h300v-766l45 83l305 532v151h300v-1365h-300v707l1 54l-48 -90l-303 -531v-140z" />
    <glyph glyph-name="uni0419" unicode="&#x419;" horiz-adv-x="1208" 
d="M429 0h-300v1365h300v-766l45 83l305 532v151h300v-1365h-300v707l1 54l-48 -90l-303 -531v-140zM619 1628q127 0 171 105h161q-71 -251 -329 -251t-333 251h161q42 -105 169 -105z" />
    <glyph glyph-name="uni041A" unicode="&#x41a;" horiz-adv-x="1081" 
d="M129 1365h300v-569l332 569h303l-342 -502l371 -863h-310l-240 629l-114 -165v-464h-300v1365z" />
    <glyph glyph-name="uni041B" unicode="&#x41b;" horiz-adv-x="1049" 
d="M245 0h-277l375 1365h337l390 -1365h-298l-271 1073z" />
    <glyph glyph-name="uni041C" unicode="&#x41c;" horiz-adv-x="1535" 
d="M129 1365h440l193 -843l217 843h427v-1365h-281v1143l-279 -1143h-218l-255 1143v-1143h-244v1365z" />
    <glyph glyph-name="uni041D" unicode="&#x41d;" horiz-adv-x="1186" 
d="M129 1365h300v-551h328v551h300v-1365h-300v558h-328v-558h-300v1365z" />
    <glyph glyph-name="uni041E" unicode="&#x41e;" horiz-adv-x="1151" 
d="M755 684q0 276 -43 368q-43 90 -136 90q-92 0 -136 -91t-44 -365t43 -368t135 -95q92 0 138 91q43 94 43 370zM1071 683q0 -704 -495 -704q-246 0 -371 180t-125 524q0 703 495 703q241 0 369 -176t127 -527z" />
    <glyph glyph-name="uni041F" unicode="&#x41f;" horiz-adv-x="1186" 
d="M129 1365h928v-1365h-300v1109h-328v-1109h-300v1365z" />
    <glyph glyph-name="uni0420" unicode="&#x420;" 
d="M429 1144v-404h93q124 0 159 57t35 141t-28 133t-63 61t-103 12h-93zM129 1365h393q180 0 278 -30q98 -29 165 -135t67 -259q0 -297 -204 -393q-97 -43 -293 -43h-106v-505h-300v1365z" />
    <glyph glyph-name="uni0421" unicode="&#x421;" horiz-adv-x="1117" 
d="M596 -21q-252 -1 -384 187t-132 516t130 516t390 188q428 0 465 -528l-274 -20q-10 304 -190 304q-95 0 -150 -97t-55 -365t50 -363q50 -94 154 -94q165 0 193 274l277 -17q-15 -221 -141 -362q-127 -139 -333 -139z" />
    <glyph glyph-name="uni0422" unicode="&#x422;" horiz-adv-x="802" 
d="M-24 1365h851v-256h-279v-1109h-300v1109h-272v256z" />
    <glyph glyph-name="uni0423" unicode="&#x423;" horiz-adv-x="934" 
d="M242 0h-127v253h127q28 0 60 20t69 135l-412 957h306l235 -596l204 596h278l-365 -1026q-70 -199 -151 -269t-224 -70z" />
    <glyph glyph-name="uni0424" unicode="&#x424;" horiz-adv-x="1330" 
d="M969 684q0 258 -176 326v-653q176 69 176 327zM361 684q0 -260 176 -327v653q-176 -66 -176 -326zM71 689q0 217 117 367q120 149 349 186v164h256v-165q169 -23 275 -111q192 -159 191 -446q0 -472 -466 -556v-168h-256v166q-254 42 -360 194t-106 369z" />
    <glyph glyph-name="uni0425" unicode="&#x425;" horiz-adv-x="977" 
d="M10 1365h334l163 -355l172 355h287l-322 -617l364 -748h-329l-199 446l-224 -446h-287l375 700z" />
    <glyph glyph-name="uni0426" unicode="&#x426;" horiz-adv-x="1263" 
d="M1067 256h204v-533h-222l-27 277h-883v1365h300v-1109h328v1109h300v-1109z" />
    <glyph glyph-name="uni0427" unicode="&#x427;" horiz-adv-x="1124" 
d="M695 0v500q-101 -78 -222 -78t-206 54t-125 144q-41 91 -41 259v486h300v-497q-1 -112 25 -156t90 -45q96 0 179 96v602h300v-1365h-300z" />
    <glyph glyph-name="uni0428" unicode="&#x428;" horiz-adv-x="1677" 
d="M139 0v1365h300v-1109h250v1109h300v-1109h250v1109h299v-1365h-1399z" />
    <glyph glyph-name="uni0429" unicode="&#x429;" horiz-adv-x="1722" 
d="M1528 256h205v-533h-222l-27 277h-1355v1365h300v-1109h250v1109h300v-1109h250v1109h299v-1109z" />
    <glyph glyph-name="uni042A" unicode="&#x42a;" horiz-adv-x="1206" 
d="M568 221h93q61 0 100 14t67 60q27 46 27 132q0 87 -36 143t-158 56h-93v-405zM268 0v1093h-320v272h620v-504h106q282 0 390 -112t107 -326q0 -164 -73 -265q-70 -104 -168 -131t-269 -27h-393z" />
    <glyph glyph-name="uni042B" unicode="&#x42b;" horiz-adv-x="1605" 
d="M1176 1365h300v-1365h-300v1365zM429 221h93q64 -1 102 13t65 62t27 132t-35 141t-159 57h-93v-405zM129 0v1365h300v-504h106q280 0 389 -112q108 -113 108 -325q0 -164 -72 -267t-170 -130t-268 -27h-393z" />
    <glyph glyph-name="uni042C" unicode="&#x42c;" horiz-adv-x="1067" 
d="M429 221h93q64 -1 102 13t65 62t27 132t-35 141t-159 57h-93v-405zM129 0v1365h300v-504h106q280 0 389 -112q108 -113 108 -325q0 -164 -72 -267t-170 -130t-268 -27h-393z" />
    <glyph glyph-name="uni042D" unicode="&#x42d;" horiz-adv-x="1144" 
d="M371 820h401q-29 323 -235 323q-173 0 -211 -195l-294 65q23 152 148 264t376 112t386 -189t135 -524q1 -196 -55 -357q-118 -343 -481 -343q-456 0 -514 432l266 59q50 -245 249 -245q210 0 235 369h-406v229z" />
    <glyph glyph-name="uni042E" unicode="&#x42e;" horiz-adv-x="1650" 
d="M1087 1142q-93 0 -136 -92t-43 -368t44 -368q44 -91 136 -91t135 89t43 369q0 281 -43 371t-136 90zM429 558v-558h-300v1365h300v-551h164q59 572 494 572q247 0 371 -180t124 -523q0 -704 -495 -704q-440 0 -494 579h-164z" />
    <glyph glyph-name="uni042F" unicode="&#x42f;" horiz-adv-x="1116" 
d="M567 1144q-69 0 -103 -15t-59 -60q-26 -45 -26 -111q0 -197 176 -197h132v383h-120zM987 0h-300v540h-150l-182 -540h-327l251 597q-192 103 -192 360q0 109 38 196q39 87 107 138t136 63t190 11h429v-1365z" />
    <glyph glyph-name="uni0430" unicode="&#x430;" horiz-adv-x="977" 
d="M365 292q0 -128 94 -128q51 0 93 58q41 58 41 211v50q-125 -14 -175 -55q-53 -38 -53 -136zM502 1031q156 -1 241 -55t108 -128t23 -221v-403q0 -187 17 -224h-261q-14 42 -14 155q-93 -176 -277 -176q-120 0 -193 70t-73 206q1 170 113 262t407 110v38q-1 101 -21 140
t-79 39q-108 0 -119 -155l-267 26q19 151 129 233t266 83z" />
    <glyph glyph-name="uni0431" unicode="&#x431;" horiz-adv-x="985" 
d="M488 195q147 0 147 319q-1 319 -151 319t-150 -319t154 -319zM835 1450q0 -74 -30 -117q-61 -87 -264 -139q-75 -20 -103 -36q-60 -34 -97 -169q80 63 196 63q176 0 282 -142t106 -396t-113 -396q-114 -142 -322 -142q-430 0 -430 579q0 353 96 556q98 203 284 240
q87 16 111 34t27 65h257z" />
    <glyph glyph-name="uni0432" unicode="&#x432;" horiz-adv-x="995" 
d="M404 218h168q58 0 78 28t20 84t-21 86t-77 29h-168v-227zM404 618h154q49 0 71 22t22 70q1 48 -13 82t-80 34h-154v-208zM104 0v1010h512q94 0 152 -21t101 -85q44 -64 44 -151q0 -139 -126 -214q156 -75 156 -243q-1 -132 -77 -214t-210 -82h-552z" />
    <glyph glyph-name="uni0433" unicode="&#x433;" horiz-adv-x="684" 
d="M104 1010h573v-219h-291v-791h-282v1010z" />
    <glyph glyph-name="uni0434" unicode="&#x434;" horiz-adv-x="879" 
d="M275 218h258l-106 521h-18zM897 218v-443h-204l-24 224h-459l-25 -224h-204v443h83l203 792h366l182 -792h82z" />
    <glyph glyph-name="uni0435" unicode="&#x435;" horiz-adv-x="942" 
d="M616 649q0 195 -131 195t-132 -223h262q1 12 1 28zM881 458h-530v-56q0 -136 37 -182t97 -46q128 0 145 173l251 -16q-67 -352 -401 -352q-208 -1 -314 139t-106 387t114 386t294 139q181 0 298 -122q115 -124 115 -450z" />
    <glyph glyph-name="uni0436" unicode="&#x436;" horiz-adv-x="1220" 
d="M752 0h-265v433l-7 3l-236 -436h-272l309 543l-280 467h285l172 -325l29 -14v339h265v-339l24 15l177 324h276l-266 -403l314 -607h-291l-228 436l-6 -2v-434z" />
    <glyph glyph-name="uni0437" unicode="&#x437;" horiz-adv-x="865" 
d="M295 610q99 0 129 5q70 12 70 106q0 123 -92 123q-84 0 -108 -142l-251 48q49 280 377 280q180 0 272 -84t92 -212q0 -130 -135 -205q161 -74 161 -234q0 -127 -90 -223t-297 -95q-135 0 -232 54t-169 247l241 43q44 -155 147 -155q45 0 78 36q31 36 31 96q0 107 -83 117
q-29 4 -141 4v191z" />
    <glyph glyph-name="uni0438" unicode="&#x438;" horiz-adv-x="998" 
d="M386 0h-282v1010h282l-1 -485l228 355v130h282v-1010h-282v471l-46 -76l-181 -274v-121z" />
    <glyph glyph-name="uni0439" unicode="&#x439;" horiz-adv-x="998" 
d="M386 0h-282v1010h282l-1 -485l228 355v130h282v-1010h-282v471l-46 -76l-181 -274v-121zM507 1278q127 0 171 105h161q-71 -251 -329 -251t-333 251h161q42 -105 169 -105z" />
    <glyph glyph-name="uni043A" unicode="&#x43a;" horiz-adv-x="942" 
d="M104 1010h282v-390l284 390h256l-255 -339l280 -671h-304l-158 469l-103 -142v-327h-282v1010z" />
    <glyph glyph-name="uni043B" unicode="&#x43b;" horiz-adv-x="825" 
d="M-28 0l300 1010h294l278 -1010h-291l-153 656l-169 -656h-259z" />
    <glyph glyph-name="uni043C" unicode="&#x43c;" horiz-adv-x="1282" 
d="M104 0v1010h365l185 -685l180 685h345v-1010h-258v568l-159 -568h-266l-154 564v-564h-238z" />
    <glyph glyph-name="uni043D" unicode="&#x43d;" horiz-adv-x="995" 
d="M104 0v1010h282v-362h224v362h282v-1010h-282v429h-224v-429h-282z" />
    <glyph glyph-name="uni043E" unicode="&#x43e;" horiz-adv-x="942" 
d="M470 176q70 0 96 70t25 262q-1 190 -27 258t-90 68t-94 -64q-28 -66 -28 -258t24 -264t94 -72zM882 504q0 -526 -410 -525q-410 -1 -411 525q1 526 411 526t410 -526z" />
    <glyph glyph-name="uni043F" unicode="&#x43f;" horiz-adv-x="958" 
d="M104 0v1010h751v-1010h-281v826h-188v-826h-282z" />
    <glyph glyph-name="uni0440" unicode="&#x440;" horiz-adv-x="977" 
d="M381 413q0 -143 23 -189q24 -43 92 -43t99 58q31 59 31 263t-27 270t-85 66t-96 -41t-37 -193v-191zM104 1010h260v-151q82 164 226 164t236 -124q92 -123 91 -383q0 -260 -90 -395t-253 -135q-116 0 -193 89v-417h-277v1352z" />
    <glyph glyph-name="uni0441" unicode="&#x441;" horiz-adv-x="907" 
d="M485 816q-142 0 -142 -298q0 -175 34 -243t103 -68q106 0 116 187l262 -17q-35 -398 -396 -398q-196 0 -299 131q-103 130 -103 390t108 395q110 135 305 135q353 0 385 -392l-262 -10q-6 94 -30 141t-81 47z" />
    <glyph glyph-name="uni0442" unicode="&#x442;" horiz-adv-x="747" 
d="M-7 1010h762v-224h-244v-786h-281v786h-237v224z" />
    <glyph glyph-name="uni0443" unicode="&#x443;" horiz-adv-x="733" 
d="M152 -358q-78 0 -138 16v222q42 -6 101 -6t91 27q30 27 57 118l-291 991h282l136 -617l131 617h243l-304 -1026q-44 -148 -76 -206t-92 -98q-62 -38 -140 -38z" />
    <glyph glyph-name="uni0444" unicode="&#x444;" horiz-adv-x="1187" 
d="M853 512q0 232 -144 303v-606q144 71 144 303zM333 512q0 -232 144 -303v606q-144 -71 -144 -303zM477 -338v343q-197 29 -307 165t-110 334q0 428 417 518v326h232v-326q417 -90 417 -514q0 -204 -109 -339t-308 -164v-343h-232z" />
    <glyph glyph-name="uni0445" unicode="&#x445;" horiz-adv-x="768" 
d="M-11 1010h306l107 -234l130 234h245l-261 -446l301 -564h-305l-148 302l-169 -302h-245l299 517z" />
    <glyph glyph-name="uni0446" unicode="&#x446;" horiz-adv-x="979" 
d="M104 -1v1011h282v-792h202v792h281v-792h125v-456h-203l-25 237h-662z" />
    <glyph glyph-name="uni0447" unicode="&#x447;" horiz-adv-x="922" 
d="M536 0v336q-81 -38 -166 -38q-135 0 -213 77t-78 223v412h282v-380q0 -114 78 -114q59 0 97 31v463h282v-1010h-282z" />
    <glyph glyph-name="uni0448" unicode="&#x448;" horiz-adv-x="1412" 
d="M109 0v1010h282v-791h174v791h281v-791h175v791h281v-1010h-1193z" />
    <glyph glyph-name="uni0449" unicode="&#x449;" horiz-adv-x="1410" 
d="M104 0v1010h277v-792h181v792h277v-792h181v792h277v-792h127v-456h-202l-25 238h-1093z" />
    <glyph glyph-name="uni044A" unicode="&#x44a;" horiz-adv-x="975" 
d="M445 197h135q26 -1 58 31t31 103q0 128 -89 128h-135v-262zM162 0v810h-219v200h501v-349h185q165 0 239 -98q74 -99 73 -237t-77 -232t-248 -94h-454z" />
    <glyph glyph-name="uni044B" unicode="&#x44b;" horiz-adv-x="1377" 
d="M993 0v1010h281v-1010h-281zM386 197h134q26 -1 58 31t32 102q0 129 -90 129h-134v-262zM104 0v1010h282v-349h185q164 0 238 -99q74 -98 74 -236q-1 -138 -77 -232t-248 -94h-454z" />
    <glyph glyph-name="uni044C" unicode="&#x44c;" horiz-adv-x="917" 
d="M386 197h134q26 -1 58 31t32 102q0 129 -90 129h-134v-262zM104 0v1010h282v-349h185q164 0 238 -99q74 -98 74 -236q-1 -138 -77 -232t-248 -94h-454z" />
    <glyph glyph-name="uni044D" unicode="&#x44d;" horiz-adv-x="881" 
d="M226 609h315q-11 128 -45 173q-36 44 -99 44q-89 0 -110 -119l-264 28q78 298 375 298q189 0 309 -126t120 -387q-1 -261 -105 -402t-313 -141q-325 0 -388 310l262 52q17 -131 115 -131q136 0 146 216h-318v185z" />
    <glyph glyph-name="uni044E" unicode="&#x44e;" horiz-adv-x="1353" 
d="M892 176q64 0 90 70t25 261q0 191 -26 259t-92 68t-94 -63t-28 -270t30 -267q31 -58 95 -58zM385 427v-427h-282v1000h282v-360h100q51 390 402 390q411 0 411 -526t-411 -525q-373 0 -407 448h-95z" />
    <glyph glyph-name="uni044F" unicode="&#x44f;" horiz-adv-x="974" 
d="M589 585v241h-121q-66 0 -88 -30t-22 -89q0 -58 20 -90t103 -32h108zM589 0v383h-125l-154 -383h-288l204 442q-141 80 -141 252q-1 124 71 220t277 96h438v-1010h-282z" />
    <glyph glyph-name="uni0451" unicode="&#x451;" horiz-adv-x="942" 
d="M616 649q0 195 -131 195t-132 -223h262q1 12 1 28zM881 458h-530v-56q0 -136 37 -182t97 -46q128 0 145 173l251 -16q-67 -352 -401 -352q-208 -1 -314 139t-106 387t114 386t294 139q181 0 298 -122q115 -124 115 -450zM208 1266q0 46 34 79q34 32 80 32t80 -32
q34 -31 34 -77t-35 -76t-77 -30t-80 29q-36 29 -36 75zM774 1266q0 -46 -36 -75t-79 -29t-78 30t-35 76t34 77q34 32 80 32t81 -31q33 -34 33 -80z" />
    <glyph glyph-name="uni0452" unicode="&#x452;" horiz-adv-x="965" 
d="M101 0v1085h-147v189h147v113h278v-113h328v-189h-328v-148q78 72 200 72t194 -69q73 -70 93 -186t20 -418t-22 -414q-22 -110 -102 -179t-204 -69q-24 0 -70 3l-24 204q27 -3 42 -3q48 0 83 54t35 372t-20 395t-82 77q-63 0 -103 -64t-40 -189v-523h-278z" />
    <glyph glyph-name="uni0453" unicode="&#x453;" horiz-adv-x="684" 
d="M104 1010h573v-219h-291v-791h-282v1010zM221 1213l341 314l112 -167l-369 -231z" />
    <glyph glyph-name="uni0454" unicode="&#x454;" horiz-adv-x="882" 
d="M655 609v-185h-318q11 -216 147 -216q97 0 114 131l263 -52q-61 -310 -388 -310q-211 0 -315 142t-103 402q0 260 120 386t308 126q297 0 375 -298l-264 -28q-21 119 -110 119q-62 0 -97 -44t-46 -173h314z" />
    <glyph glyph-name="uni0455" unicode="&#x455;" horiz-adv-x="837" 
d="M421 844q-88 0 -88 -88q0 -50 34 -76t143 -65q108 -38 162 -69t91 -93t37 -144q0 -140 -101 -235t-282 -95q-341 0 -378 301l224 36q28 -151 159 -151q112 0 112 94q0 51 -34 77t-127 55q-175 55 -239 135t-65 183q0 146 102 234t257 88q268 0 342 -264l-201 -60
q-41 137 -148 137z" />
    <glyph glyph-name="uni0456" unicode="&#x456;" horiz-adv-x="488" 
d="M103 1010h282v-1010h-282v1010zM387 1093h-286v279h286v-279z" />
    <glyph glyph-name="uni0457" unicode="&#x457;" horiz-adv-x="488" 
d="M189 1268q1 -46 -35 -76t-78 -30t-78 28q-37 28 -37 76q0 47 33 80q36 31 81 31t81 -31q33 -32 33 -78zM299 1268q0 46 33 78q36 31 82 31t80 -31q33 -34 33 -80t-36 -75q-37 -29 -79 -29t-78 30q-35 30 -35 76zM103 1010h282v-1010h-282v1010z" />
    <glyph glyph-name="uni0458" unicode="&#x458;" horiz-adv-x="488" 
d="M113 1010h282v-977q-1 -154 -17 -233q-16 -78 -80 -124t-144 -46q-79 0 -171 14v231q21 -3 37 -3q62 0 78 31q15 31 15 138v969zM397 1093h-286v279h286v-279z" />
    <glyph glyph-name="uni0459" unicode="&#x459;" horiz-adv-x="1282" 
d="M891 203q38 -1 64 31t26 96q0 129 -90 129h-173l51 -256h122zM942 661q164 1 238 -97t74 -237t-76 -233t-249 -94h-396l-112 648l-189 -648h-260l330 1010h294l78 -349h268z" />
    <glyph glyph-name="uni045A" unicode="&#x45a;" horiz-adv-x="1424" 
d="M893 197h134q25 0 59 32q31 33 31 102q0 128 -90 128h-134v-262zM893 1010v-349h185q164 1 238 -97t74 -237t-77 -233t-248 -94h-454v429h-225v-429h-282v1010h282v-362h225v362h282z" />
    <glyph glyph-name="uni045B" unicode="&#x45b;" horiz-adv-x="973" 
d="M101 1274v117h278v-117h322v-189h-322v-167q84 89 202 89q118 -1 186 -49q67 -48 95 -129t28 -232v-597h-277v575q0 120 -19 161q-20 41 -73 41t-97 -66t-45 -188v-523h-278v1085h-147v189h147z" />
    <glyph glyph-name="uni045C" unicode="&#x45c;" horiz-adv-x="942" 
d="M345 1209l341 314l112 -167l-369 -231zM104 1010h282v-390l284 390h256l-255 -339l280 -671h-304l-158 469l-103 -142v-327h-282v1010z" />
    <glyph glyph-name="uni045E" unicode="&#x45e;" horiz-adv-x="733" 
d="M152 -358q-78 0 -138 16v222q42 -6 101 -6t91 27q30 27 57 118l-291 991h282l136 -617l131 617h243l-304 -1026q-44 -148 -76 -206t-92 -98q-62 -38 -140 -38zM367 1278q127 0 171 105h161q-71 -251 -329 -251t-333 251h161q42 -105 169 -105z" />
    <glyph glyph-name="uni045F" unicode="&#x45f;" horiz-adv-x="971" 
d="M103 0v1010h282v-792h200v792h282v-1010h-268l-17 -238h-194l-18 238h-267z" />
    <glyph glyph-name="uni0490" unicode="&#x490;" horiz-adv-x="959" 
d="M959 1620v-503h-530v-1117h-300v1365h588v255h242z" />
    <glyph glyph-name="uni0491" unicode="&#x491;" horiz-adv-x="712" 
d="M424 1028v208h282v-426h-320v-810h-282v1028h320z" />
  </font>
</defs>
</svg>
