<svg xmlns="http://www.w3.org/2000/svg" viewBox="0 0 1280 101.8" preserveAspectRatio="none">
<g>
	<polygon style="fill:none;stroke:#C5C5C5;stroke-width:18;stroke-miterlimit:10;" points="791,16.3 770,14.3 509,15.3 476,9.3 
		0,15.3 0,40.4 475,92.3 506,83.3 741,92.3 792,65.3 1280,33.5 1280,10.3 	"/>
</g>
<g>
	<g>
		<polygon id="right_1_" style="fill:#FFD204;" points="791,16.3 792,65.3 1280,33.5 1280,10.3 		"/>
		<polygon id="left_1_" style="fill:#FFD204;" points="0,15.3 0,40.4 475,92.3 476,9.3 		"/>
		<polygon id="svg_6_1_" style="fill:#D6B000;" points="791,16.3 770,14.3 741,92.3 792,65.3 		"/>
		<polygon id="svg_8_1_" style="fill:#D6B000;" points="476,9.3 475,92.3 506,83.3 509,15.3 		"/>
		<polygon id="svg_10_1_" style="fill:#FFD204;" points="509,15.3 506,83.3 741,92.3 770,14.3 		"/>
	</g>
</g>
</svg>
