<svg id="Layer_1" data-name="Layer 1" xmlns="http://www.w3.org/2000/svg" width="1298" height="279" viewBox="18 -18 1262 279" preserveAspectRatio="none">
  <title>footer-v2</title>
  <polygon points="954 30 929 21 808 28 792 24 636 31 636 31 611 34 520 20 488 32 376 21 336 9 9 40 9 270 335 270 365 270 491 270 523 270 610 270 638 270 783 270 817 270 923 270 954 270 1289 270 1289 50 954 30" style="fill: #4e4e4e;stroke: #707070;stroke-miterlimit: 10;stroke-width: 18px"/>
  <g>
    <polygon id="svg_2" data-name="svg 2" points="929 21 923 270 954 270 954 30 929 21" style="fill: #404040"/>
    <polygon id="svg_8" data-name="svg 8" points="520 20 488 32 491 270 523 270 520 20" style="fill: #404040"/>
    <polygon id="svg_10" data-name="svg 10" points="336 9 335 270 365 270 376 21 336 9" style="fill: #404040"/>
    <polygon id="svg_12" data-name="svg 12" points="637 31 611 34 610 270 638 270 637 31" style="fill: #404040"/>
    <polygon id="svg_14" data-name="svg 14" points="808 28 792 24 783 270 817 270 808 28" style="fill: #404040"/>
    <polygon id="left" points="9 40 9 270 335 270 336 9 9 40" style="fill: #4e4e4e"/>
    <polygon id="right" points="954 30 954 270 1289 270 1289 50 954 30" style="fill: #4e4e4e"/>
    <polygon id="svg_16" data-name="svg 16" points="488 32 376 21 365 270 491 270 488 32" style="fill: #4e4e4e"/>
    <polygon id="svg_18" data-name="svg 18" points="520 20 523 270 610 270 611 34 520 20" style="fill: #4e4e4e"/>
    <polygon id="svg_20" data-name="svg 20" points="636 31 638 270 783 270 792 24 636 31" style="fill: #4e4e4e"/>
    <polygon id="svg_22" data-name="svg 22" points="808 28 817 270 923 270 929 21 808 28" style="fill: #4e4e4e"/>
  </g>
</svg>
