<svg id="Layer_1" data-name="Layer 1" xmlns="http://www.w3.org/2000/svg" viewBox="0 0 618 80"><defs><style>.cls-1{fill:#d6b000;}.cls-2{fill:#ffd204;}</style></defs><title>navigation</title><polygon id="svg_2" data-name="svg 2" class="cls-1" points="593 12 587 67 618 55 618 22 593 12"/><polygon id="svg_8" data-name="svg 8" class="cls-1" points="204 11 172 23 175 56 207 60 204 11"/><polygon id="svg_10" data-name="svg 10" class="cls-1" points="0 0 0 80 29 70 40 12 0 0"/><polygon id="svg_14" data-name="svg 14" class="cls-1" points="452 19 436 15 425 62.65 462 53 452 19"/><polygon id="svg_16" data-name="svg 16" class="cls-2" points="172 23 40 12 28.15 70.28 175 56 172 23"/><polygon id="svg_18" data-name="svg 18" class="cls-2" points="204 11 207 60 425 62.65 436 15 204 11"/><polygon id="svg_22" data-name="svg 22" class="cls-2" points="452 19 462 53 587 67 593 12 452 19"/></svg>