<?xml version="1.0" encoding="utf-8"?>
<!-- Generator: Adobe Illustrator 21.1.0, SVG Export Plug-In . SVG Version: 6.00 Build 0)  -->
<svg version="1.1" id="Layer_1" xmlns="http://www.w3.org/2000/svg" xmlns:xlink="http://www.w3.org/1999/xlink" x="0px" y="0px"
   viewBox="0 0 1280 106" style="enable-background:new 0 0 1280 106;" preserveAspectRatio="none">
<style type="text/css">
  .st0{fill:#FFD204;stroke:#C5C5C5;stroke-width:18;stroke-miterlimit:10;}
  .st1{fill:#FFD204;}
  .st2{fill:#D6B000;}
</style>
<polygon class="st0" points="805,12.6 762.6,20.2 539,12.6 488,24.1 0,45.1 0,72.8 489.1,72.8 510,81.7 660.7,92 770.7,86.1 
  804.1,77.6 1280,65.5 1280,31.8 "/>
<g>
  <g>
    <polygon id="right_2_" class="st1" points="489.1,72.8 488,24.1 0,45.1 0,72.8    "/>
    <polygon id="left_2_" class="st1" points="1280,65.5 1280,31.8 805,12.6 804.1,77.6     "/>
    <polygon id="svg_6_2_" class="st2" points="489.1,72.8 510,81.7 539,12.6 488,24.1    "/>
    <polygon id="svg_8_2_" class="st2" points="804.1,77.6 805,12.6 762.6,20.2 770.7,86.1    "/>
    <polygon id="svg_10_2_" class="st1" points="770.7,86.1 762.6,20.2 539,12.6 510,81.7 660.7,92    "/>
  </g>
</g>
</svg>
